<?xml version="1.0" encoding="UTF-8" standalone="no"?>
<!-- Generator: Adobe Illustrator 18.0.0, SVG Export Plug-In . SVG Version: 6.00 Build 0)  -->

<svg
   version="1.1"
   id="Layer_1"
   x="0px"
   y="0px"
   viewBox="0 0 624 200"
   enable-background="new 0 0 624 200"
   xml:space="preserve"
   sodipodi:docname="logo_erletxea_white.svg"
   inkscape:version="1.4.3 (0d15f75, 2025-12-25)"
   xmlns:inkscape="http://www.inkscape.org/namespaces/inkscape"
   xmlns:sodipodi="http://sodipodi.sourceforge.net/DTD/sodipodi-0.dtd"
   xmlns="http://www.w3.org/2000/svg"
   xmlns:svg="http://www.w3.org/2000/svg"><defs
   id="defs11">
		
		
		
		
		
		
		
	</defs><sodipodi:namedview
   id="namedview11"
   pagecolor="#ffffff"
   bordercolor="#000000"
   borderopacity="0.25"
   inkscape:showpageshadow="2"
   inkscape:pageopacity="0.0"
   inkscape:pagecheckerboard="0"
   inkscape:deskcolor="#d1d1d1"
   inkscape:zoom="2.0352564"
   inkscape:cx="216.18898"
   inkscape:cy="82.053543"
   inkscape:window-width="1368"
   inkscape:window-height="850"
   inkscape:window-x="-6"
   inkscape:window-y="-6"
   inkscape:window-maximized="1"
   inkscape:current-layer="g11" />
<g
   id="g11">
	<g
   id="g14"><text
     xml:space="preserve"
     style="font-size:122.667px;writing-mode:lr-tb;direction:ltr;fill:#151632;fill-opacity:1"
     x="125.29132"
     y="143.18501"
     id="text11"><tspan
       sodipodi:role="line"
       id="tspan11"
       x="125.29132"
       y="143.18501"
       style="font-style:normal;font-variant:normal;font-weight:bold;font-stretch:normal;font-size:122.667px;font-family:Arial;-inkscape-font-specification:'Arial Bold';fill:#ffffff;fill-opacity:1">Erle</tspan></text><text
     xml:space="preserve"
     style="font-style:normal;font-variant:normal;font-weight:bold;font-stretch:normal;font-size:122.667px;font-family:Arial;-inkscape-font-specification:'Arial Bold';writing-mode:lr-tb;direction:ltr;fill:#f3d02f;fill-opacity:1"
     x="357.06454"
     y="142.31653"
     id="text12"><tspan
       sodipodi:role="line"
       id="tspan12"
       x="357.06454"
       y="142.31653"
       style="font-size:122.667px">txea</tspan></text></g>
	<g
   id="g13"><g
     id="g10">
		<g
   id="g9">
			<path
   fill="#F3D02F"
   d="M57,70.3c6.6,0,12.2,6.4,12.2,11.5c0,6.1-10,6.6-12,6.6l0,0c-2.2,0-12-0.3-12-6.6     C44.8,76.7,50.4,70.3,57,70.3L57,70.3z M44.1,133.6l25.2,0.1l2.2,5.6l-29.6-0.1L44.1,133.6z M47.6,125.6l2.2-5.6l14.2,0l2.2,5.6     L47.6,125.6z M53,112.1l3.9-9.5l3.9,9.5L53,112.1z M23.3,143.6c-1.7,0-3.2-0.3-4.6-1c-6.1-2.7-9.3-9.8-6.5-15.9     c6.9-16.6,27.7-28.5,39-30.2l-7.4,18.1l0,0L38.3,128l0,0l-3.5,8.1C32.6,140.7,28.2,143.6,23.3,143.6L23.3,143.6z M56.7,161.8     c-8.1,0-14.7-5.9-17.3-15l34.7,0.1C71.4,156.2,64.8,161.8,56.7,161.8L56.7,161.8z M95,142.9c-1.5,0.7-3.2,1-4.6,1     c-4.9,0-9.3-3-11.2-7.6l-3.4-8.1l0,0l-5.1-12.7c0-0.5-0.2-1-0.5-1.5l-7-17.6c11.2,2,32,14,38.8,30.5     C104.3,133.3,101.3,140.4,95,142.9L95,142.9z"
   id="path8" />
			
				<line
   fill="none"
   stroke="#F3D02F"
   stroke-width="5.2146"
   stroke-linecap="round"
   stroke-miterlimit="10"
   x1="47.8"
   y1="67.5"
   x2="43.7"
   y2="58.9"
   id="line8" />
			
				<line
   fill="none"
   stroke="#F3D02F"
   stroke-width="5.2146"
   stroke-linecap="round"
   stroke-miterlimit="10"
   x1="66.1"
   y1="67.5"
   x2="70.1"
   y2="58.9"
   id="line9" />
		</g>
		
			<polyline
   fill="none"
   stroke="#F3D02F"
   stroke-width="5.2146"
   stroke-linecap="round"
   stroke-linejoin="round"
   stroke-miterlimit="10"
   points="    94.8,103.5 105.5,84.2 81.1,42.1 32.7,42.1 8.3,84.2 20,103.5   "
   id="polyline9" />
	</g></g>
</g>
</svg>
